<?xml version="1.0" encoding="utf-8"?>
<!-- Generator: Adobe Illustrator 24.1.1, SVG Export Plug-In . SVG Version: 6.00 Build 0)  -->
<svg version="1.1" id="Layer_1" xmlns="http://www.w3.org/2000/svg" xmlns:xlink="http://www.w3.org/1999/xlink" x="0px" y="0px"
	 viewBox="0 0 500 500" style="enable-background:new 0 0 500 500;" xml:space="preserve">
<style type="text/css">
	.st0{fill-rule:evenodd;clip-rule:evenodd;fill:#3E4959;}
	.st1{fill-rule:evenodd;clip-rule:evenodd;fill:#242D3C;}
	.st2{fill:#23C7CC;}
	.st3{fill:#31D9DE;}
</style>
<g>
	<path class="st0" d="M357.1,262.4c-10.2,35.7-27.6,67-53.1,95.6c-16.8,18.8-36.4,34.4-59.6,47.6c-23.1-13.2-42.7-28.8-59.6-47.6
		c-26.1-29.2-43.7-61.2-53.8-98c-2.9-10.7-5-20.7-6.3-30.4c-2.4-17.6-2.4-36-2.4-55.4c0,0,0-29.6,0-35.2
		c41.3-5.3,80.7-18.6,117.2-39.4l0.3-0.2c1.5-0.9,3.1-1.8,4.7-2.7c1.6,0.9,3.2,1.8,4.7,2.7l0.2,0.1c26.1,14.9,53.6,25.9,82.4,32.9
		l30.1-30.1c1.4-1.4,2.9-2.7,4.4-3.8c-34.3-5.1-66.7-16.3-97-33.7c-7.7-4.4-15.5-8.9-22.4-14.7c-0.8,0-1.6,0-2.4,0
		c-0.8,0-1.6,0-2.4,0c-6.9,5.8-14.7,10.3-22.4,14.7c-33.3,19-69.1,30.7-107.2,35c-8.2,0.9-16.4,1.2-24.7,1.8c-5.2,0.4-5.6,0.6-5.6,6
		c0,22.2,0,44.4,0.1,66.6c0,20.3,0,40.5,2.7,60.7c1.6,12.1,4.2,24,7.4,35.7c11.8,43,32.9,81,62.6,114.2c24.6,27.4,53.9,48.6,87,64.9
		c0.9,0.4,1.7,0.5,2.4,0.4c0.7,0.1,1.5,0,2.4-0.4c33.1-16.2,62.4-37.5,87-64.9c29.7-33.2,50.8-71.1,62.6-114.2
		c3.2-11.8,5.7-23.6,7.4-35.7c0.9-7,1.5-14,2-21L357.1,262.4z"/>
	<g>
		<path class="st1" d="M249,99.3l0.2,0.1c26.1,14.9,53.6,25.9,82.4,32.9l30.1-30.1c1.4-1.4,2.9-2.7,4.4-3.8
			c-34.3-5.1-66.7-16.3-97-33.7c-7.7-4.4-15.5-8.9-22.4-14.7c-0.8,0-1.6,0-2.4,0v46.6c0,0,0,0,0,0C245.9,97.5,247.5,98.4,249,99.3z"
			/>
		<path class="st1" d="M357.1,262.4c-10.2,35.7-27.6,67-53.1,95.6c-16.8,18.8-36.4,34.4-59.6,47.6h0V450c0.7,0.1,1.5,0,2.4-0.4
			c33.1-16.2,62.4-37.5,87-64.9c29.7-33.2,50.8-71.1,62.6-114.2c3.2-11.8,5.7-23.6,7.4-35.7c0.9-7,1.5-14,2-21L357.1,262.4z"/>
	</g>
	<path class="st2" d="M252.8,253.5c-2.2,2.2-5.2,3.5-8.5,3.5c-3.3,0-6.3-1.3-8.5-3.5l-48.8-48.8c-2.2-2.2-5.2-3.5-8.5-3.5
		c-3.3,0-6.3,1.3-8.5,3.5l-18.4,18.4c-2.2,2.2-3.5,5.2-3.5,8.5c0,3.3,1.3,6.3,3.5,8.5l57.3,57.3l26.9,26.9c2.2,2.2,5.2,3.5,8.5,3.5
		s6.3-1.3,8.5-3.5l26.9-26.9l138.6-138.6c2.2-2.2,3.5-5.2,3.5-8.5c0-3.3-1.3-6.3-3.5-8.5l-18.4-18.4c-2.2-2.2-5.2-3.5-8.5-3.5
		c-3.3,0-6.3,1.3-8.5,3.5L252.8,253.5z"/>
	<path class="st3" d="M243.9,257c-3.1-0.1-6-1.4-8.1-3.5l-48.8-48.8c-2.2-2.2-5.2-3.5-8.5-3.5c-3.3,0-6.3,1.3-8.5,3.5l-18.4,18.4
		c-2.2,2.2-3.5,5.2-3.5,8.5c0,3.3,1.3,6.3,3.5,8.5l57.3,57.3l26.9,26.9c2.1,2.1,4.9,3.4,8.1,3.5V257z"/>
</g>
</svg>
