<?xml version="1.0" encoding="utf-8"?>
<!-- Generator: Adobe Illustrator 24.1.1, SVG Export Plug-In . SVG Version: 6.00 Build 0)  -->
<svg version="1.1" id="Capa_1" xmlns="http://www.w3.org/2000/svg" xmlns:xlink="http://www.w3.org/1999/xlink" x="0px" y="0px"
	 viewBox="0 0 568.8 182.5" style="enable-background:new 0 0 568.8 182.5;" xml:space="preserve">
<style type="text/css">
	.st0{enable-background:new    ;}
	.st1{fill:#1D1D1B;}
</style>
<g>
	<g class="st0">
		<path class="st1" d="M0,129.8h32.4V144h38v-28.2H15.7L0,105.1V58l15.3-10.3h71l17.1,11.8V82H70V68.6H32.6v26.3h54.9l15.3,10.7
			v47.7l-15.9,11H18L0,151.8V129.8z"/>
		<path class="st1" d="M192.4,164.2h-55.5v-20.4h10.9V68.3h-10.5v14h-26.8V48.1h107.8v34.2h-26.8v-14h-10.5v75.5h11.6V164.2z"/>
		<path class="st1" d="M240.8,164.2l-13.4-9.4v-96l15.9-11.3h68.6l15.7,10.8v95l-15.3,10.8H240.8z M295.1,68.4h-35.3V144h35.3V68.4z
			"/>
		<path class="st1" d="M393.8,164.2h-56.4v-20.4h11.8V68.4h-11.6V47.6h91.1l15.7,13V104l-17.6,11.8h-10.3l22.5,28h6.2v20.4h-46.7
			v-20.4h6.8l-20.6-27.1h-1.4v27.1h10.5V164.2z M409.9,68.6h-26.6v26.3h26.6V68.6z"/>
		<path class="st1" d="M560,164.2H451.4v-20.4h11.8V68.1h-12.6V47.5H560v33.6h-32V68.4h-32.2v26.9h25v20.5h-25v28h32.6v-15.5H560
			V164.2z"/>
	</g>
	<path d="M30,41.3c-5.5,0-9.8-1.7-12.8-5.1c-3-3.4-4.5-8.6-4.5-15.5c0-6.9,1.6-12.1,4.7-15.5C20.6,1.7,24.9,0,30.3,0
		c2.8-0.1,5.6,0.5,8.2,1.6c2.3,1,4.3,2.6,5.7,4.7c1.5,2.4,2.2,5.2,2.1,8h-5.8c0-3.3-0.9-5.8-2.8-7.3c-2.1-1.6-4.7-2.4-7.4-2.3
		c-3.3-0.2-6.4,1.2-8.6,3.6c-2.1,2.4-3.1,6-3.1,10.9v2.9c0,4.9,1,8.5,2.9,10.9s4.8,3.6,8.4,3.6s6.3-0.9,8-2.8s2.5-4.7,2.5-8.5v-3.1
		l2.4,2.1H29.1v-4.5h17.1v20.7h-3.7l-1.2-4.4c-1.2,1.7-2.9,3.1-4.9,3.9C34.4,40.9,32.2,41.3,30,41.3z"/>
	<path d="M120,40.5l13.9-39.9h7.2l13.9,39.9H149l-3-8.9h-17.4l-3,8.9L120,40.5z M130.1,27h14.3l-6-17.7c-0.1-0.5-0.3-1-0.4-1.7
		s-0.4-1.6-0.6-2.7h-0.3c-0.2,1.1-0.4,2-0.5,2.7c-0.1,0.6-0.3,1.1-0.5,1.7L130.1,27z"/>
	<path d="M229.1,40.5V0.7h17.7c4.3,0,7.6,1,9.8,3c3.9,3.9,4.4,10,1.2,14.5c-1.5,1.9-3.5,3.2-5.8,3.9l8.8,18.5h-6.3l-8.1-17.6h-11.8
		v17.6L229.1,40.5z M234.8,18.3h11.8c2,0.1,3.9-0.5,5.4-1.8c1.3-1.2,2.1-3,2-4.8c0.1-1.8-0.6-3.5-1.9-4.7c-1.5-1.2-3.5-1.9-5.5-1.7
		h-11.8V18.3z"/>
	<path d="M352.1,41.3c-5.7,0-10-1.7-12.9-5.1c-2.9-3.4-4.4-8.6-4.4-15.5c0-6.9,1.5-12.1,4.4-15.5c2.9-3.4,7.2-5.1,12.9-5.1
		c2.7-0.1,5.4,0.5,7.9,1.6c2.3,1.1,4.2,2.8,5.4,5c1.4,2.6,2.1,5.5,2,8.5h-5.8c0-3.5-0.9-6.1-2.6-7.8c-1.9-1.8-4.4-2.7-6.9-2.6
		c-3.8,0-6.7,1.2-8.6,3.6s-2.8,6-2.8,10.9v2.9c0,4.8,0.9,8.5,2.8,10.9c1.9,2.4,4.7,3.6,8.6,3.6c2.6,0.1,5.1-0.8,7.1-2.6
		c1.8-1.7,2.7-4.3,2.7-7.7h5.6c0.1,2.9-0.6,5.9-2,8.5c-1.2,2.2-3.1,3.9-5.4,4.9C357.5,40.8,354.8,41.3,352.1,41.3z"/>
	<path d="M444.1,40.5V0.7h5.6v39.9L444.1,40.5z"/>
	<path d="M523.8,40.5l13.9-39.9h7.2l13.9,39.9h-6.1l-3-8.9h-17.4l-3,8.9L523.8,40.5z M534,27h14.2l-5.9-17.7c-0.1-0.5-0.3-1-0.4-1.7
		s-0.4-1.6-0.6-2.7H541c-0.2,1.1-0.4,2-0.5,2.7c-0.1,0.6-0.3,1.1-0.5,1.7L534,27z"/>
</g>
</svg>
